<?xml version="1.0" standalone="no"?>
<!DOCTYPE svg PUBLIC "-//W3C//DTD SVG 20010904//EN"
 "http://www.w3.org/TR/2001/REC-SVG-20010904/DTD/svg10.dtd">
<svg version="1.0" xmlns="http://www.w3.org/2000/svg"
 width="1914.000000pt" height="1914.000000pt" viewBox="0 0 1914.000000 1914.000000"
 preserveAspectRatio="xMidYMid meet">
<metadata>
Created by potrace 1.11, written by Peter Selinger 2001-2013
</metadata>
<g transform="translate(0.000000,1914.000000) scale(0.100000,-0.100000)"
fill="#000000" stroke="none">
<path d="M9644 18694 c-20 -33 -47 -75 -59 -94 -12 -19 -33 -53 -47 -75 -14
-22 -191 -310 -393 -640 -203 -330 -426 -694 -497 -808 -70 -114 -128 -212
-128 -217 0 -4 -4 -10 -8 -12 -4 -1 -35 -48 -68 -102 -86 -143 -90 -150 -193
-318 -52 -84 -108 -175 -126 -203 -32 -50 -395 -641 -426 -693 -9 -15 -69
-112 -133 -216 -64 -105 -113 -193 -109 -196 5 -4 55 -26 113 -49 58 -23 114
-46 125 -51 11 -5 52 -21 90 -36 39 -15 88 -34 110 -44 22 -9 60 -25 85 -34
25 -10 54 -22 65 -27 21 -9 344 -139 830 -333 160 -64 299 -121 310 -126 11
-5 56 -23 100 -41 44 -17 94 -37 110 -44 17 -7 134 -54 260 -105 127 -51 257
-104 290 -117 33 -13 76 -30 95 -37 19 -7 166 -66 325 -131 160 -64 544 -220
855 -345 1092 -439 1645 -662 1675 -675 76 -33 305 -122 305 -119 0 4 -51 96
-60 109 -4 6 -103 172 -220 370 -117 198 -222 376 -235 395 -13 19 -34 56 -48
81 -14 25 -48 83 -76 128 -28 46 -51 84 -51 86 0 2 -33 59 -74 127 -132 222
-239 403 -250 423 -6 11 -70 119 -142 240 -73 121 -141 236 -152 255 -10 19
-84 143 -162 275 -249 418 -392 659 -412 695 -11 19 -85 143 -163 275 -78 132
-152 256 -163 275 -22 39 -441 745 -596 1005 -55 94 -106 179 -112 190 -6 11
-59 100 -117 198 -59 99 -107 181 -107 183 0 3 -8 17 -19 32 -17 24 -120 196
-169 283 -11 19 -58 99 -105 178 l-85 144 -38 -59z"/>
<path d="M3467 16553 c7 -49 15 -108 19 -133 3 -25 7 -56 9 -70 3 -14 7 -41 9
-60 3 -19 8 -53 11 -75 3 -22 13 -89 21 -150 9 -60 17 -121 19 -135 2 -14 7
-50 10 -80 4 -30 8 -57 10 -60 2 -3 6 -34 10 -70 3 -35 8 -67 10 -70 2 -3 7
-35 10 -70 4 -36 8 -67 10 -70 2 -3 6 -34 10 -70 4 -36 9 -74 11 -85 2 -11 6
-38 9 -60 3 -22 10 -67 15 -100 5 -33 12 -85 15 -115 4 -30 8 -57 10 -60 1 -3
6 -36 10 -75 4 -38 8 -72 10 -75 2 -3 6 -32 10 -65 3 -33 8 -69 10 -80 5 -22
11 -60 26 -175 6 -41 14 -102 19 -135 5 -33 13 -96 20 -140 12 -87 17 -128 25
-177 2 -18 12 -82 20 -143 9 -60 18 -126 21 -145 2 -19 7 -51 10 -70 2 -19 6
-48 9 -65 3 -16 7 -48 10 -70 3 -22 7 -53 10 -70 2 -16 7 -52 11 -80 3 -27 8
-59 10 -69 3 -19 21 -143 29 -208 2 -18 7 -51 10 -73 7 -45 7 -44 30 -205 9
-63 18 -126 20 -140 2 -14 7 -47 11 -75 3 -27 8 -57 9 -65 2 -9 6 -43 10 -75
4 -33 9 -69 11 -79 6 -33 26 -180 27 -194 0 -14 8 -12 132 35 50 18 104 39
120 44 17 6 39 15 50 20 11 5 70 26 130 48 121 43 689 253 745 276 19 8 105
40 190 71 85 31 182 67 215 79 33 13 165 61 293 109 496 184 702 261 842 313
80 30 150 55 155 57 6 2 17 6 25 9 17 7 533 198 745 277 77 28 293 108 480
177 187 69 354 131 370 138 17 7 50 20 75 28 25 9 88 32 140 52 52 20 108 40
124 45 16 5 81 29 145 54 64 24 168 63 231 86 108 40 149 60 123 60 -9 0 -496
193 -580 230 -38 17 -64 27 -168 68 -152 60 -1076 432 -1110 447 -16 7 -156
63 -310 125 -154 61 -293 117 -310 124 -16 8 -235 96 -485 196 -250 100 -468
188 -485 195 -16 7 -61 25 -100 40 -38 15 -83 33 -100 41 -16 7 -77 31 -135
54 -58 23 -118 47 -135 55 -16 8 -142 59 -280 114 -490 195 -880 352 -900 361
-11 5 -56 23 -100 41 -44 17 -93 37 -110 44 -47 20 -634 255 -638 255 -2 0 3
-39 10 -87z"/>
<path d="M15937 16624 c-4 -4 -28 -15 -54 -24 -27 -9 -241 -92 -478 -185 -236
-93 -470 -183 -520 -202 -49 -18 -99 -38 -110 -43 -18 -9 -226 -90 -435 -170
-47 -18 -98 -38 -115 -45 -32 -14 -508 -199 -890 -346 -126 -49 -239 -93 -250
-98 -11 -5 -58 -23 -105 -41 -47 -18 -94 -36 -105 -41 -21 -9 -485 -190 -745
-290 -85 -33 -158 -63 -163 -68 -7 -7 75 -148 562 -969 86 -144 164 -276 174
-293 32 -55 242 -410 468 -792 123 -207 231 -389 240 -405 82 -140 948 -1602
1147 -1937 53 -88 100 -169 106 -180 35 -64 111 -184 113 -178 4 16 45 239 49
273 3 19 9 51 14 70 5 19 18 87 29 150 11 63 36 198 55 300 20 102 38 202 42
224 3 21 8 48 10 60 4 19 57 302 70 371 3 17 14 75 24 130 11 55 31 161 44
235 14 74 27 145 30 156 2 12 7 39 10 60 4 22 13 73 21 114 8 41 17 86 19 100
3 14 23 124 46 245 22 121 43 236 46 255 3 19 7 43 10 52 3 10 7 30 10 45 3
16 25 138 50 273 25 135 48 256 50 270 3 14 11 59 19 100 8 41 17 91 20 110 3
19 9 55 14 80 6 25 13 63 17 85 4 22 8 45 10 50 3 14 13 68 19 108 3 17 9 52
14 77 5 25 15 74 21 110 6 36 16 85 21 110 15 75 61 324 64 345 2 19 18 107
30 165 10 48 37 195 41 220 3 14 7 36 9 50 8 38 12 59 40 213 14 78 32 174 40
212 8 39 16 84 19 100 20 109 26 145 32 180 3 22 7 42 9 45 2 3 6 26 10 50 3
25 8 52 10 60 2 8 7 31 10 50 3 19 15 80 25 135 11 55 21 113 24 129 3 16 10
54 17 84 10 52 9 69 -4 56z"/>
<path d="M9170 14064 c-267 -100 -573 -213 -725 -269 -49 -18 -200 -74 -335
-125 -135 -50 -290 -107 -345 -127 -55 -19 -113 -41 -130 -48 -16 -7 -59 -23
-95 -35 -36 -13 -77 -29 -92 -37 -15 -7 -31 -14 -35 -14 -10 -2 -4 0 -188 -68
-88 -32 -187 -68 -220 -80 -33 -12 -69 -25 -80 -30 -17 -8 -295 -111 -396
-147 -124 -44 -394 -146 -409 -154 -15 -8 -75 -110 -327 -560 -11 -19 -35 -62
-53 -95 -18 -33 -36 -64 -40 -70 -4 -5 -23 -39 -43 -75 -19 -36 -63 -114 -97
-175 -34 -60 -74 -130 -87 -155 -14 -25 -33 -58 -43 -75 -16 -28 -37 -65 -95
-170 -12 -22 -51 -92 -87 -155 -132 -234 -252 -446 -276 -490 -14 -25 -34 -61
-45 -80 -93 -165 -255 -454 -275 -490 -56 -101 -63 -112 -77 -134 -16 -25 -14
-43 36 -311 12 -60 22 -119 24 -130 1 -11 8 -47 14 -80 6 -33 13 -72 16 -87 3
-16 7 -40 10 -55 3 -16 8 -44 11 -63 3 -19 7 -42 9 -50 2 -8 7 -37 11 -65 3
-27 8 -53 10 -56 2 -4 6 -24 9 -45 3 -22 8 -50 11 -64 2 -14 6 -34 8 -45 7
-39 16 -90 21 -115 5 -24 18 -99 30 -165 2 -16 7 -41 10 -55 8 -39 46 -253 50
-275 4 -26 90 -505 120 -670 13 -71 27 -146 30 -165 3 -19 28 -156 55 -305 51
-281 57 -313 64 -355 3 -14 12 -65 20 -115 9 -49 18 -101 21 -115 5 -23 18
-96 30 -165 9 -54 14 -78 18 -81 2 -2 43 67 91 153 48 87 100 181 115 208 16
28 131 235 256 460 125 226 372 669 548 985 176 316 334 600 350 630 61 111
158 285 167 300 6 8 26 44 45 80 19 36 49 90 66 120 40 71 118 210 156 280 17
30 131 235 253 455 123 220 236 425 253 455 16 30 38 69 47 85 10 17 29 51 44
78 61 110 80 145 112 200 19 32 34 60 34 62 0 2 15 30 34 62 18 32 47 83 63
113 17 30 73 132 125 225 52 94 110 197 128 230 18 33 197 355 398 715 201
360 380 684 400 720 19 36 38 70 42 75 4 6 23 39 42 75 54 99 87 159 128 230
20 36 54 95 74 133 20 37 76 138 125 225 48 86 91 164 94 172 4 8 14 25 23 38
9 12 13 22 8 22 -5 -1 -124 -44 -264 -96z"/>
<path d="M9630 14146 c0 -2 113 -197 251 -432 139 -236 353 -602 477 -814 124
-212 233 -397 243 -412 11 -14 19 -29 19 -32 0 -4 35 -66 79 -139 70 -119 208
-353 634 -1082 78 -132 174 -295 214 -363 40 -67 73 -125 73 -127 0 -3 16 -29
35 -59 19 -30 35 -57 35 -60 0 -3 15 -29 33 -58 19 -29 45 -73 59 -98 14 -25
92 -157 173 -295 81 -137 157 -268 170 -290 41 -71 118 -204 287 -490 90 -154
167 -287 171 -295 4 -8 16 -28 26 -45 25 -41 307 -519 339 -575 14 -25 60
-103 102 -175 42 -71 109 -184 147 -250 39 -66 122 -208 185 -315 63 -107 244
-417 403 -688 158 -270 290 -491 291 -489 2 1 6 18 9 37 3 19 8 46 10 60 11
51 15 77 30 160 9 47 20 105 25 130 5 25 11 59 14 75 4 25 18 100 50 270 4 21
45 242 53 285 2 14 20 108 39 210 38 200 40 208 54 290 6 30 12 66 15 80 3 14
9 50 15 80 11 60 17 92 25 130 2 14 7 41 10 60 4 19 15 80 25 135 11 55 22
115 25 133 3 18 12 63 19 100 8 37 17 85 20 107 4 22 13 74 21 115 8 41 16 86
19 100 4 25 74 406 82 445 2 11 7 36 10 55 10 55 39 210 50 265 2 11 16 84 30
163 l26 142 -133 223 c-72 122 -162 273 -198 335 -36 62 -74 125 -83 140 -10
15 -21 34 -25 42 -6 13 -112 192 -154 260 -79 131 -149 253 -149 260 0 6 -4
10 -10 10 -5 0 -10 4 -10 9 0 5 -34 67 -77 138 -42 70 -141 238 -221 373 -80
135 -152 257 -161 272 -9 14 -33 55 -54 90 -20 34 -51 86 -67 113 -17 28 -35
59 -40 70 -6 11 -29 51 -53 90 -41 67 -45 71 -122 103 -44 18 -96 39 -115 46
-19 7 -165 66 -325 131 -159 64 -310 125 -335 135 -54 20 -217 87 -245 100
-11 5 -157 64 -325 130 -168 67 -318 128 -335 135 -16 7 -156 63 -310 125
-154 61 -293 117 -310 124 -16 8 -73 31 -125 51 -52 20 -108 43 -125 50 -16 7
-86 36 -155 63 -69 27 -288 116 -488 196 -359 145 -372 150 -372 142z"/>
<path d="M5520 12709 c-250 -93 -458 -169 -461 -169 -4 0 -24 -8 -45 -17 -22
-9 -41 -17 -44 -18 -3 -1 -12 -4 -20 -8 -8 -3 -121 -44 -250 -92 -129 -47
-244 -90 -255 -94 -11 -5 -78 -30 -150 -56 -71 -25 -139 -50 -150 -55 -11 -5
-108 -42 -215 -81 -265 -97 -313 -115 -330 -122 -8 -4 -96 -36 -195 -73 -99
-36 -259 -95 -355 -131 -96 -36 -215 -80 -265 -98 -49 -18 -133 -48 -185 -68
-52 -19 -219 -81 -370 -137 -151 -56 -284 -106 -295 -110 -11 -5 -90 -34 -175
-65 -85 -31 -166 -61 -180 -67 -14 -5 -72 -27 -130 -48 -58 -21 -240 -88 -405
-150 -165 -61 -410 -152 -545 -202 -135 -49 -261 -96 -280 -104 -19 -7 -48
-19 -65 -24 l-30 -11 31 -27 c28 -24 125 -100 522 -410 59 -46 122 -95 141
-110 68 -54 979 -765 1115 -869 76 -60 143 -113 150 -118 6 -6 31 -26 56 -45
25 -19 52 -40 60 -47 70 -55 474 -370 530 -413 40 -30 77 -60 84 -65 6 -6 72
-58 146 -115 74 -58 142 -110 150 -117 53 -43 233 -183 236 -183 3 0 63 101
109 185 16 28 48 85 72 128 24 42 55 99 70 125 14 26 80 141 145 255 65 115
118 210 118 212 0 1 29 53 65 115 36 62 65 114 65 116 0 2 53 97 118 211 65
114 132 233 149 263 16 30 81 145 143 255 62 110 124 220 138 245 14 25 86
153 160 285 74 132 149 265 165 295 44 80 175 312 187 330 6 8 14 24 19 36 5
11 30 55 55 98 25 43 46 79 46 81 0 2 13 26 29 53 16 27 44 76 62 108 18 33
41 75 52 94 11 19 31 55 45 80 14 25 95 169 180 320 86 151 166 294 178 317
12 23 51 92 87 155 35 62 75 133 89 158 60 108 71 126 80 137 5 7 8 17 6 22
-1 5 -208 -67 -458 -160z"/>
<path d="M15172 12014 c3 -3 0 -29 -8 -57 -7 -29 -22 -104 -33 -167 -29 -171
-30 -175 -56 -310 -13 -69 -27 -138 -30 -155 -10 -60 -16 -92 -35 -190 -10
-55 -22 -116 -25 -135 -3 -19 -8 -42 -10 -50 -2 -8 -6 -31 -9 -50 -5 -33 -9
-50 -21 -110 -3 -14 -8 -43 -11 -65 -3 -22 -7 -42 -9 -45 -2 -3 -6 -26 -10
-50 -4 -25 -13 -74 -20 -110 -7 -36 -16 -83 -19 -105 -4 -23 -9 -52 -11 -65
-10 -52 -64 -336 -69 -360 -8 -50 -46 -256 -51 -280 -6 -28 -4 -19 -45 -240
-16 -91 -32 -176 -35 -190 -6 -28 -64 -340 -71 -380 -13 -76 -91 -492 -99
-530 -3 -14 -8 -41 -11 -60 -2 -19 -9 -55 -14 -80 -5 -25 -21 -108 -35 -185
-14 -77 -33 -172 -41 -212 -8 -40 -16 -87 -18 -105 -3 -18 -16 -91 -30 -163
-24 -124 -53 -281 -62 -335 -3 -14 -13 -70 -24 -125 -20 -103 -30 -155 -35
-190 -2 -11 -9 -45 -14 -75 -6 -30 -13 -66 -16 -80 -3 -14 -7 -36 -10 -50 -2
-14 -7 -41 -10 -60 -3 -19 -8 -51 -12 -70 l-6 -35 39 33 c21 18 48 41 59 50
11 10 58 49 105 87 47 38 87 72 90 75 3 3 167 140 365 305 198 165 362 302
365 305 3 3 57 48 120 100 63 52 147 122 186 155 39 33 82 69 95 80 69 56 205
170 209 175 3 3 56 47 119 99 62 51 123 101 135 111 11 10 44 37 71 60 28 23
59 49 70 59 100 83 201 167 205 171 3 3 111 93 240 200 129 107 237 197 240
200 3 3 73 61 155 130 83 69 159 133 170 142 11 9 67 56 125 104 58 48 125
104 150 124 25 21 122 102 215 180 94 78 181 152 195 163 14 12 77 65 140 117
63 52 126 105 140 116 57 49 179 151 218 182 22 19 51 43 64 54 13 11 148 124
300 251 153 127 277 232 275 233 -1 1 -95 36 -209 78 -114 42 -218 80 -230 86
-20 8 -178 66 -438 160 -41 15 -100 37 -130 48 -125 46 -450 166 -670 247
-129 47 -257 95 -285 105 -27 10 -77 28 -110 40 -33 12 -69 26 -80 30 -21 9
-431 159 -870 320 -137 50 -266 97 -285 105 -19 8 -105 40 -190 70 -85 31
-164 60 -175 65 -43 18 -161 60 -169 60 -5 0 -7 -3 -4 -6z"/>
<path d="M4476 10027 c-34 -58 -55 -95 -92 -164 -21 -37 -48 -85 -61 -105 -13
-21 -23 -40 -23 -42 0 -3 -14 -29 -31 -58 -18 -29 -44 -75 -59 -103 -15 -27
-37 -66 -49 -85 -11 -19 -24 -42 -28 -50 -6 -12 -84 -152 -196 -350 -11 -19
-41 -73 -67 -120 -26 -47 -58 -103 -70 -125 -13 -22 -34 -60 -48 -85 -13 -25
-32 -58 -42 -75 -10 -16 -30 -52 -45 -80 -75 -133 -220 -391 -292 -518 -24
-42 -55 -99 -70 -125 -14 -26 -43 -76 -63 -112 -20 -36 -50 -87 -65 -115 -26
-47 -176 -314 -213 -379 -48 -84 -372 -662 -427 -761 -27 -48 -174 -309 -220
-390 -32 -57 -64 -113 -93 -165 -14 -25 -44 -79 -67 -120 -24 -41 -56 -100
-73 -130 -16 -30 -54 -98 -84 -150 -30 -52 -68 -120 -84 -150 -17 -30 -82
-145 -144 -255 -62 -110 -124 -220 -138 -245 -14 -25 -53 -94 -87 -155 -97
-172 -115 -205 -156 -280 l-38 -70 1122 -2 c617 -1 1551 -3 2075 -4 524 -1
955 0 957 3 2 2 -7 65 -21 139 -13 73 -27 149 -30 168 -3 18 -7 43 -10 55 -4
20 -29 158 -60 331 -7 44 -16 94 -19 110 -3 17 -12 66 -20 110 -8 44 -17 94
-20 110 -3 17 -14 80 -25 140 -10 61 -21 117 -24 125 -2 8 -7 33 -10 55 -3 22
-10 65 -16 95 -6 30 -13 69 -15 85 -3 17 -10 53 -15 80 -5 28 -12 64 -15 80
-3 17 -19 107 -35 200 -17 94 -33 181 -35 195 -4 22 -36 198 -49 270 -3 14
-12 66 -20 115 -9 50 -18 101 -21 115 -8 39 -14 72 -20 115 -4 22 -10 58 -15
80 -5 22 -12 56 -15 75 -13 79 -25 147 -30 175 -12 63 -34 181 -40 215 -3 19
-12 71 -20 115 -8 44 -17 94 -20 110 -3 17 -7 44 -10 60 -3 17 -19 104 -36
195 -16 91 -38 212 -49 270 -11 58 -22 123 -26 145 -3 22 -14 85 -25 140 -10
55 -21 118 -24 140 -4 22 -8 47 -11 57 -3 9 -9 41 -14 72 -9 52 -19 105 -35
196 -3 19 -17 96 -30 170 -13 74 -27 151 -30 170 -3 19 -8 42 -10 50 -2 8 -7
33 -10 55 -3 23 -8 52 -11 65 -3 14 -13 72 -24 130 -10 58 -23 126 -28 153 -5
26 -10 50 -10 53 -1 16 -9 10 -26 -19z"/>
<path d="M15834 7842 c-17 -15 -90 -76 -259 -217 -27 -22 -53 -45 -59 -50 -6
-6 -78 -66 -161 -134 -82 -69 -152 -127 -155 -131 -3 -3 -25 -21 -50 -40 -25
-19 -47 -37 -50 -40 -4 -5 -496 -416 -575 -481 -21 -18 -145 -121 -180 -151
-11 -9 -96 -81 -190 -159 -93 -78 -172 -145 -175 -149 -3 -4 -12 -11 -21 -16
-9 -5 -40 -29 -69 -54 -86 -74 -89 -77 -132 -112 -23 -18 -46 -38 -52 -43 -11
-10 -833 -695 -870 -725 -10 -8 -23 -20 -30 -25 -6 -6 -40 -35 -76 -64 -36
-30 -67 -57 -70 -60 -3 -3 -30 -26 -60 -51 -30 -25 -64 -53 -75 -62 -11 -9
-63 -52 -115 -95 -52 -43 -106 -88 -120 -100 -14 -12 -74 -63 -135 -113 -60
-50 -119 -99 -130 -108 -11 -9 -63 -53 -115 -96 -52 -44 -101 -85 -109 -92
-11 -10 569 -12 2995 -9 1655 2 3010 4 3011 4 2 1 -18 36 -43 79 -25 42 -60
102 -77 132 -31 58 -160 280 -196 340 -11 19 -25 44 -31 55 -5 11 -21 38 -35
60 -14 22 -28 47 -32 55 -3 8 -16 31 -28 50 -12 19 -33 55 -47 80 -23 41 -274
478 -506 880 -52 91 -103 179 -112 195 -10 17 -31 53 -47 81 -17 27 -41 70
-55 95 -56 100 -303 527 -325 561 -12 21 -23 39 -23 42 0 3 -145 257 -170 296
-5 8 -27 47 -49 85 -21 39 -70 123 -108 187 -68 115 -70 117 -89 100z"/>
<path d="M5322 6399 c2 -4 48 -42 103 -85 55 -43 105 -82 110 -87 6 -4 73 -57
150 -117 77 -61 163 -128 190 -150 28 -22 88 -70 135 -106 145 -113 152 -119
164 -129 11 -10 138 -109 260 -204 38 -30 76 -60 85 -67 18 -14 392 -308 571
-448 63 -49 120 -95 125 -101 6 -6 17 -16 26 -21 9 -5 32 -21 50 -36 43 -34
243 -192 288 -227 19 -14 72 -56 119 -93 46 -38 90 -68 96 -69 12 0 1007 0
2719 1 l1148 0 302 253 c166 138 304 254 307 257 3 3 57 48 120 100 63 52 126
105 140 117 14 12 142 119 285 238 143 119 269 224 280 233 11 10 61 51 110
92 50 41 92 77 95 80 3 3 43 37 90 75 47 38 87 72 90 75 8 8 72 62 118 98 22
19 50 41 60 50 11 10 88 73 170 142 83 69 149 127 147 129 -7 6 -8655 7 -8653
0z"/>
<path d="M5250 6343 c0 -4 5 -27 10 -51 6 -23 12 -57 15 -75 4 -29 57 -327 69
-387 3 -14 12 -65 20 -115 9 -49 18 -101 21 -115 3 -14 14 -74 24 -135 11 -60
22 -123 25 -140 3 -16 8 -43 11 -60 3 -16 8 -43 12 -60 3 -16 7 -39 9 -50 2
-11 10 -60 19 -110 9 -49 18 -101 20 -115 3 -14 7 -36 10 -50 10 -51 27 -146
31 -175 3 -16 9 -50 14 -75 5 -25 25 -135 45 -245 19 -110 37 -211 40 -225 5
-23 21 -117 30 -165 3 -18 11 -64 21 -120 2 -11 20 -108 39 -216 20 -108 38
-207 40 -220 3 -13 9 -49 15 -79 5 -30 14 -80 19 -110 6 -30 19 -104 30 -165
11 -60 29 -159 40 -220 11 -60 31 -175 45 -255 14 -80 28 -156 31 -170 3 -14
14 -77 25 -140 11 -63 22 -126 25 -140 7 -35 45 -244 94 -520 12 -63 23 -126
26 -140 2 -14 11 -65 20 -115 23 -127 30 -168 65 -360 17 -93 35 -195 40 -225
6 -30 12 -66 15 -80 3 -14 7 -38 10 -55 3 -16 8 -41 10 -55 8 -37 11 -57 25
-137 6 -40 15 -73 19 -73 3 0 17 10 31 23 27 24 127 107 181 149 19 14 45 36
59 48 14 12 40 34 59 48 19 15 50 41 71 57 20 17 55 46 79 65 24 19 73 60 110
90 37 30 183 150 325 265 142 116 347 282 455 370 108 89 329 269 491 401 315
256 898 731 941 767 15 12 93 76 175 142 196 159 211 173 198 182 -15 11 -73
56 -87 68 -7 6 -86 68 -177 139 -91 72 -205 162 -255 201 -49 39 -196 154
-325 255 -129 102 -237 187 -240 190 -3 3 -23 18 -45 35 -22 16 -42 32 -45 35
-3 3 -45 37 -95 75 -82 64 -227 177 -266 209 -16 13 -114 89 -194 150 -22 17
-42 33 -45 36 -3 3 -61 50 -130 104 -69 53 -132 103 -140 109 -8 7 -67 53
-130 102 -138 107 -261 205 -314 248 -22 17 -69 54 -105 82 -36 27 -68 53 -71
56 -3 3 -36 29 -75 59 -38 29 -82 63 -96 74 -14 12 -43 35 -65 51 -21 17 -61
48 -89 70 -27 22 -165 130 -305 240 -140 110 -257 202 -260 205 -3 3 -23 19
-45 36 -83 64 -464 363 -557 437 -54 43 -98 74 -98 70z"/>
<path d="M11746 4383 c-1 -1 -869 -3 -1929 -4 l-1926 -2 83 -66 c45 -36 95
-75 110 -86 16 -11 33 -25 40 -30 12 -12 443 -351 553 -436 115 -89 247 -193
259 -204 7 -5 78 -62 159 -125 80 -63 217 -171 303 -239 86 -67 172 -135 191
-150 19 -14 57 -44 85 -67 28 -22 92 -71 141 -109 50 -38 92 -72 95 -75 3 -3
25 -21 50 -40 25 -19 47 -37 50 -41 3 -3 12 -10 21 -15 9 -5 34 -23 55 -41 34
-29 206 -164 289 -229 64 -49 189 -148 204 -160 21 -18 277 -218 321 -252 33
-25 209 -164 421 -331 53 -42 111 -87 129 -101 18 -14 101 -79 185 -145 84
-66 209 -165 280 -220 70 -55 193 -152 274 -215 80 -64 175 -138 211 -165 36
-28 67 -52 70 -55 3 -3 25 -21 50 -40 25 -19 52 -40 60 -47 8 -7 43 -34 76
-60 34 -26 78 -61 99 -78 21 -16 70 -55 109 -87 39 -31 73 -55 74 -53 3 3 72
314 86 389 2 11 25 115 49 231 25 116 51 237 58 270 7 33 14 65 15 70 2 8 24
114 49 229 2 11 6 32 9 46 3 14 8 36 11 50 3 14 8 36 11 50 6 28 22 105 28
135 2 11 18 83 35 160 29 135 137 639 145 680 4 17 79 367 92 430 3 11 9 40
14 65 5 25 18 88 30 140 12 52 24 109 27 125 2 17 13 67 24 112 10 44 21 94
23 110 3 15 19 93 37 173 17 80 33 156 35 170 3 14 9 39 14 55 4 17 11 48 15
70 10 55 13 71 29 140 8 33 13 62 10 64 -4 4 -2034 8 -2038 4z"/>
</g>
</svg>
