<svg id="Layer_3" data-name="Layer 3" xmlns="http://www.w3.org/2000/svg" viewBox="0 0 1914.17 1857.58"><defs><style>.cls-1{fill:#96abfe;}.cls-2{opacity:0;}.cls-3{fill:#d78f5b;}.cls-4{fill:#80ffff;}.cls-5{fill:#6cb6ff;}.cls-6{fill:#df7000;}.cls-7{fill:#d7cc8e;}.cls-8{fill:#86d1e8;}.cls-9{fill:#e9c638;}.cls-10{fill:#24cc85;}.cls-11{fill:#00c400;}.cls-12{fill:#6f6;}.cls-13{fill:#83cc6a;}</style></defs><title>enrope</title><path class="cls-1" d="M1516.13,685.77L1482,869v0l-67.85,364.42,70.79-59.07,97.62-81.46,0,0L1900.76,827.4,1516.13,685.77" transform="translate(1.54 -2.11)"/><path class="cls-2" d="M1908.63,826l1.38-3.75-1.38,3.75-2.56-3.07,2.56,3.07m-391-148.25-0.65,3.48-0.09.51L1908.63,826l-320.45,267.42h0l0.85,1a3.88,3.88,0,0,1,.39.56l1,1.75,320.76-267.68a4,4,0,0,0-1.18-6.82h0l-392.4-144.49" transform="translate(1.54 -2.11)"/><path class="cls-2" d="M1484.92,1174.41l-70.79,59.07h0l70.79-59.07m31.94-492.63-0.74,4L1900.76,827.4l-318.18,265.52a4,4,0,0,1,2.53-.9l0.37,0a4,4,0,0,1,2.71,1.42L1908.63,826,1516.87,681.78" transform="translate(1.54 -2.11)"/><path class="cls-3" d="M1584.2,1102l-173.28,144.59a4,4,0,0,1-.36.3l-233.44,194.81,205.16-.18h0l397.43-.35L1584.2,1102" transform="translate(1.54 -2.11)"/><path class="cls-2" d="M1590.43,1096.79l-2.76,2.3-0.36.3,199.33,345.76-400.35.36h0v0.3a3.89,3.89,0,0,1-.09.84l-0.61,2.86,401.05-.36a4,4,0,0,0,3.46-6l-199.67-346.36" transform="translate(1.54 -2.11)"/><path class="cls-1" d="M1582.58,1092.92l0,0-97.62,81.46,97.62-81.46,0,0" transform="translate(1.54 -2.11)"/><path class="cls-2" d="M1586,1097l3.07-2.56L1586,1097m2.22-3.58-3.07,2.56,0.85,1,1.35,2.35,0.36-.3,2.76-2.3-1-1.75a3.88,3.88,0,0,0-.39-0.56h0l-0.85-1h0" transform="translate(1.54 -2.11)"/><path class="cls-2" d="M1585.1,1092a4,4,0,0,0-2.53.9l0,0-97.62,81.46-70.79,59.07-1.15,6.17L1585.11,1096l3.07-2.56a4,4,0,0,0-2.71-1.42l-0.37,0" transform="translate(1.54 -2.11)"/><path class="cls-2" d="M1410.92,1246.58l-0.12.1-0.08.07-233.6,194.94h0l233.44-194.81a4,4,0,0,0,.36-0.3m176.4-147.2-3.12,2.6,195.52,339.16-397.43.35h0a4,4,0,0,1,4,4l400.35-.36-199.33-345.76" transform="translate(1.54 -2.11)"/><path class="cls-2" d="M1585.11,1096h0L1413,1239.65l-0.88,4.75a4.05,4.05,0,0,1-1.3,2.28l0.12-.1h0L1584.2,1102l3.12-2.6L1586,1097l-0.85-1" transform="translate(1.54 -2.11)"/><path class="cls-4" d="M1593.71,225.38L1194.1,381.05l138.11,233.17h0l143.86,242.89,25.69-138,7.33-39.34v0l84.61-454.41" transform="translate(1.54 -2.11)"/><path class="cls-4" d="M1509.1,679.79v0l-7.33,39.34,7.33-39.34v0" transform="translate(1.54 -2.11)"/><path class="cls-2" d="M1599,215a4,4,0,0,0-1.45.27L1190,374.08l1.73,2.92,0.34,0.57L1599,219l-85.2,457.57,0.92,0.17a3.89,3.89,0,0,1,.66.18l2.27,0.84,85.28-458A4,4,0,0,0,1599,215" transform="translate(1.54 -2.11)"/><path class="cls-1" d="M1516.13,685.77L1482,869v0l34.13-183.27" transform="translate(1.54 -2.11)"/><path class="cls-2" d="M1513.76,676.61l-0.73,3.93-33.86,181.8L1513,680.54l0.93,0.17,2.91,1.07,0.09-.51,0.65-3.48-2.27-.84a3.89,3.89,0,0,0-.66-0.18l-0.92-.17" transform="translate(1.54 -2.11)"/><path class="cls-2" d="M1513,680.54l-33.86,181.8,2.33,3.93A4,4,0,0,1,1482,869h0l34.13-183.27,0.74-4-2.91-1.07-0.93-.17" transform="translate(1.54 -2.11)"/><path class="cls-2" d="M1501.77,719.15l-25.69,138h0l25.69-138M1599,219L1192,377.57l140.17,236.65L1194.1,381.05l399.61-155.68L1509.1,679.79a4,4,0,0,1,3.92-3.25,4,4,0,0,1,.73.07h0L1599,219" transform="translate(1.54 -2.11)"/><path class="cls-2" d="M1513,676.54a4,4,0,0,0-3.92,3.25v0l-7.33,39.34-25.69,138,3.1,5.23L1513,680.54l0.73-3.93h0a4,4,0,0,0-.73-0.07" transform="translate(1.54 -2.11)"/><polyline class="cls-5" points="962.2 470.18 1407.74 1230.29 1475.39 866.95 1327.56 617.36 962.2 470.18"/><polyline class="cls-2" points="954.61 467.12 952.92 470.17 1402.73 1237.57 1406.38 1237.57 1406.62 1236.29 956.13 467.73 954.61 467.12"/><polyline class="cls-1" points="1483.53 866.95 1483.53 866.95 1415.68 1231.37 1483.53 866.95"/><polyline class="cls-2" points="1406.62 1236.29 1406.38 1237.57 1407.37 1237.57 1406.62 1236.29"/><path class="cls-2" d="M1482,869.06a4,4,0,0,1-4.66,3.18l-68,365.26,4.82-4h0L1482,869.06" transform="translate(1.54 -2.11)"/><path class="cls-2" d="M1414.14,1233.48l-4.82,4-0.42,2.25a4,4,0,0,1,2.33,1.37l1.76-1.47,1.15-6.17" transform="translate(1.54 -2.11)"/><path class="cls-2" d="M1413,1239.65l-1.76,1.47a4,4,0,0,1-.05,5.19,4,4,0,0,0,.93-1.9l0.88-4.75" transform="translate(1.54 -2.11)"/><polyline class="cls-1" points="1483.53 866.93 1483.53 866.95 1483.53 866.95 1483.53 866.93"/><path class="cls-2" d="M1479.17,862.34l-1.11,6,3.44-2-3.44,2-0.73,3.93a4,4,0,0,0,4.66-3.18v0a4,4,0,0,0-.49-2.77h0l-2.33-3.93" transform="translate(1.54 -2.11)"/><path class="cls-2" d="M1332.21,614.22a4,4,0,0,1-1.4,5.48L1475,863.08l1.11-6h0L1332.21,614.22" transform="translate(1.54 -2.11)"/><path class="cls-2" d="M1478.06,868.31h0m-2-11.2-1.11,6,3.1,5.23,1.11-6-3.1-5.23" transform="translate(1.54 -2.11)"/><polyline class="cls-2" points="956.13 467.73 1406.62 1236.29 1475.39 866.95 1327.56 617.36 1327.56 617.36 1475.39 866.95 1407.74 1230.29 962.2 470.18 956.13 467.73"/><path class="cls-2" d="M1473.85,869.05l-68.77,369.35,0.75,1.28h0.88l2.61-2.18,68-365.26a4,4,0,0,1-2.71-1.89l-0.77-1.29" transform="translate(1.54 -2.11)"/><path class="cls-2" d="M1409.32,1237.5l-2.61,2.18h1.45a4,4,0,0,1,.74.07l0.42-2.25" transform="translate(1.54 -2.11)"/><path class="cls-2" d="M1326,619.46l147.83,249.59,0.28-1.48,0.84-4.49L1330.81,619.7a4,4,0,0,1-3.53.27l-1.26-.51" transform="translate(1.54 -2.11)"/><path class="cls-2" d="M1474.13,867.58h0l-0.28,1.48,0.77,1.29a4,4,0,0,0,2.71,1.89l0.73-3.93-3.93-.73m0.84-4.49-0.84,4.49,3.93,0.73-3.1-5.23" transform="translate(1.54 -2.11)"/><path class="cls-6" d="M529.33,1247.35l247.49,194.37,2,0.47A4,4,0,0,1,780,1442h0l384.67-.34,232.5-194-867.8-.32" transform="translate(1.54 -2.11)"/><polyline class="cls-2" points="526.09 1237.24 524.45 1240.2 525.77 1241.24 1403.46 1241.57 1404.55 1240.66 1402.73 1237.57 526.09 1237.24"/><polyline class="cls-2" points="1404.55 1240.66 1403.46 1241.57 1405.08 1241.57 1404.55 1240.66"/><path class="cls-2" d="M1405.1,1246.23l-234.22,195.46h6.25l233.6-194.94,0.08-.07-0.07.06a4,4,0,0,1-5.63-.51" transform="translate(1.54 -2.11)"/><path class="cls-2" d="M1405.1,1246.23h0a4,4,0,0,0,5.63.51l0.07-.06a4,4,0,0,0,.38-0.38,4,4,0,0,1-6.08-.07" transform="translate(1.54 -2.11)"/><polyline class="cls-2" points="1402.73 1237.57 1404.55 1240.66 1406.04 1239.41 1406.38 1237.57 1402.73 1237.57"/><path class="cls-2" d="M1404.85,1239.68l-0.34,1.85,1-.86,0.08-.07,0.51-.43-0.29-.49h-1" transform="translate(1.54 -2.11)"/><path class="cls-2" d="M1404.5,1241.52l-1.49,1.25,0.53,0.91h0.63a4,4,0,0,1,.07-0.74l0.26-1.41" transform="translate(1.54 -2.11)"/><path class="cls-2" d="M1408.9,1239.75l-0.73,3.92h0l-2.56-3.07,2.56,3.07v0l-2-3.48-0.51.43-0.08.07-1,.86-0.26,1.41a4,4,0,0,0-.07.74h4l-3.06,2.55h0l3.06-2.55h0l0.73-3.92h0" transform="translate(1.54 -2.11)"/><path class="cls-2" d="M1408.9,1239.75l-0.73,3.92,3.06-2.55a4,4,0,0,0-2.33-1.37" transform="translate(1.54 -2.11)"/><path class="cls-2" d="M1411.23,1241.12l-3.06,2.55h0l-3.06,2.55a4,4,0,1,0,6.13-5.12" transform="translate(1.54 -2.11)"/><polyline class="cls-2" points="1407.37 1237.57 1407.66 1238.06 1408.25 1237.57 1407.37 1237.57"/><path class="cls-2" d="M1406.71,1239.68l-0.59.49,2.05,3.5v0l0.73-3.92a4,4,0,0,0-.74-0.07h-1.45" transform="translate(1.54 -2.11)"/><polyline class="cls-2" points="525.77 1241.24 778.35 1439.62 778.35 1439.62 530.87 1245.25 1398.67 1245.57 1166.17 1439.59 781.5 1439.93 1166.17 1439.59 1403.46 1241.57 525.77 1241.24"/><path class="cls-2" d="M1401.92,1243.68l-237.29,198h6.25l234.22-195.46a4,4,0,0,1-.44-0.64l-1.12-1.91h-1.62" transform="translate(1.54 -2.11)"/><path class="cls-2" d="M1404.66,1245.59a4,4,0,0,0,.44.64h0a4,4,0,0,1-.38-0.54l-0.06-.1" transform="translate(1.54 -2.11)"/><path class="cls-2" d="M1403.54,1243.68l1.12,1.91a4,4,0,0,1-.49-1.91h-0.63" transform="translate(1.54 -2.11)"/><path class="cls-2" d="M1404.17,1243.68a4,4,0,0,0,.49,1.91l0.06,0.1a4,4,0,0,0,.38.54l3.06-2.55h-4" transform="translate(1.54 -2.11)"/><polyline class="cls-7" points="1378.95 1447.41 1167.62 1447.59 1167.62 1447.59 788.94 1447.92 960.64 1582.79 960.64 1582.79 1294.11 1844.68 1378.95 1447.41"/><polyline class="cls-7" points="1378.95 1447.41 1167.62 1447.59 1167.62 1447.59 1167.62 1447.59 1167.62 1447.59 1378.95 1447.41"/><polyline class="cls-7" points="1167.62 1443.59 1167.62 1447.59 1167.62 1447.59 1167.62 1447.59 1167.62 1447.59 1167.62 1443.59"/><path class="cls-2" d="M1385.59,1449.51h-4.09l-85.88,402.17-1.49,1.42L959.78,1590.51a4,4,0,0,1-.62.63l-2.48,2,335,263.08a4,4,0,0,0,5.23-.25l1.49-1.42a4,4,0,0,0,1.15-2.06l86.06-403" transform="translate(1.54 -2.11)"/><polyline class="cls-3" points="1383.83 1439.4 1383.83 1439.4 1178.67 1439.58 1178.67 1439.58 1383.83 1439.4"/><path class="cls-2" d="M1386.29,1445.5h-4v0.3l-0.79,3.7h4.09l0.61-2.86a3.89,3.89,0,0,0,.09-0.84v-0.3h0" transform="translate(1.54 -2.11)"/><path class="cls-2" d="M1382.29,1441.51h0l-205.16.18h0l-4.8,4,210-.18h4a4,4,0,0,0-4-4" transform="translate(1.54 -2.11)"/><polyline class="cls-2" points="1178.67 1439.58 1172.42 1439.59 1167.62 1443.59 1173.87 1443.59 1178.67 1439.58"/><path class="cls-2" d="M1164.63,1441.7L780,1442a4,4,0,0,0-1.11.16l-2-.47h0l0.54,0.43,0.18,0.13,4.78,3.75,379.77-.33a4,4,0,0,1,1.44-3.07l1.11-.93" transform="translate(1.54 -2.11)"/><path class="cls-2" d="M1170.88,1441.69h-6.25l-1.11.93a4,4,0,0,0-1.44,3.07h4l4.8-4" transform="translate(1.54 -2.11)"/><path class="cls-2" d="M1381.5,1449.51h-4.09l-84.83,397.28L959.1,1584.89a4,4,0,0,1,.68,5.62l334.35,262.59,1.49-1.42,85.88-402.17" transform="translate(1.54 -2.11)"/><path class="cls-2" d="M1382.29,1445.51h0l-210,.18-3.69,3.08a4,4,0,0,1-2.56.93h0l211.32-.19h4.09l0.79-3.7v-0.3" transform="translate(1.54 -2.11)"/><path class="cls-2" d="M1162.08,1445.7l-379.77.33,5.09,4,378.69-.33h0a4,4,0,0,1-4-4" transform="translate(1.54 -2.11)"/><path class="cls-2" d="M1172.33,1445.69h-10.25a4,4,0,0,0,4,4h0v0a4,4,0,0,0,2.56-.93l3.69-3.08" transform="translate(1.54 -2.11)"/><path class="cls-8" d="M966.56,12.58L743.19,376l92.24,37.16,117.36,47.28h0l366.5,147.64L1184.82,381.08h0L966.56,12.58" transform="translate(1.54 -2.11)"/><path class="cls-2" d="M967.36,2.11a4,4,0,0,0-2,.56L962.92,4.1a4,4,0,0,0-1.37,1.35L735.66,373l3.13,1.26L737.3,378l1.49-3.71,0.63,0.25L965,7.54l2.41-1.43L1186.22,375.6a4,4,0,0,1,.59-0.29l3.16-1.23L970.81,4.07a4,4,0,0,0-2.45-1.84,4,4,0,0,0-1-.13" transform="translate(1.54 -2.11)"/><path class="cls-2" d="M1190,374.08l-3.16,1.23a4,4,0,0,0-.59.29l2,3.44,3.44-2-3.44,2,3.78-1.47-0.34-.57-1.73-2.92" transform="translate(1.54 -2.11)"/><path class="cls-2" d="M1192,377.57l-3.78,1.47,137.16,231.56,4.85,2a4,4,0,0,1,1.95,1.67h0L1192,377.57" transform="translate(1.54 -2.11)"/><polyline class="cls-5" points="962.2 470.18 962.2 470.18 1327.56 617.36 1327.56 617.36 962.2 470.18"/><polyline class="cls-2" points="955.18 466.11 954.61 467.12 956.13 467.73 955.18 466.11"/><path class="cls-2" d="M1332.21,614.22l-3.44,2,2,3.44a4,4,0,0,0,1.4-5.48h0m-6.8-3.63,3.35,5.66,3.44-2a4,4,0,0,0-1.95-1.67l-4.85-2" transform="translate(1.54 -2.11)"/><path class="cls-2" d="M955,465.69a4,4,0,0,1-.22.46l-1.15,2.06,1,1.63,6.07,2.44h0L1326,619.46h0l-0.69-1.17,3.44-2-3.44,2-2.66-4.5L955,465.69" transform="translate(1.54 -2.11)"/><path class="cls-2" d="M1328.77,616.26l-3.44,2,0.69,1.17,1.26,0.51a4,4,0,0,0,3.53-.27l-2-3.44m-6.11-2.46,2.66,4.5,3.44-2-6.11-2.46" transform="translate(1.54 -2.11)"/><path class="cls-2" d="M967.37,6.11L965,7.54l-225.54,367,96,38.68L743.19,376,966.56,12.58l218.26,368.5a4,4,0,0,1,1.4-5.48L967.37,6.11" transform="translate(1.54 -2.11)"/><path class="cls-2" d="M1186.22,375.6a4,4,0,0,0-1.4,5.48h0l3.44-2-2-3.44" transform="translate(1.54 -2.11)"/><polyline class="cls-2" points="1186.36 378.97 1320.85 606.03 954.35 458.39 954.35 458.39 1320.85 606.03 1186.36 378.97"/><polyline class="cls-2" points="1189.8 376.93 1186.36 378.97 1320.85 606.03 1326.96 608.49 1189.8 376.93"/><path class="cls-2" d="M952.81,460.5a4,4,0,0,1,2.19,5.2l367.66,148.1-3.35-5.66L952.81,460.5" transform="translate(1.54 -2.11)"/><polyline class="cls-2" points="1320.85 606.03 1324.2 611.69 1330.31 614.15 1326.96 608.49 1320.85 606.03"/><path class="cls-9" d="M523.55,1253l3.61,20,31,171.88,72.72,403.38L950.23,1588.1,772.76,1448.7l-0.18-.13h0L523.55,1253" transform="translate(1.54 -2.11)"/><polyline class="cls-9" points="774.29 1446.6 951.77 1585.99 951.77 1585.99 774.29 1446.6 774.29 1446.6"/><path class="cls-2" d="M554.93,1449.56l-2.26.41a4.08,4.08,0,0,1-.71.06h-1L624.2,1856.4a4,4,0,0,0,6.46,2.39l326-265.63-2.52-2-0.71-.56L628.14,1855.69l-73.21-406.12" transform="translate(1.54 -2.11)"/><polyline class="cls-2" points="524.45 1240.2 523.87 1241.24 525.77 1241.24 524.45 1240.2"/><path class="cls-2" d="M522.33,1243.35l-0.39.7,0.54,3L771.91,1443a4,4,0,0,1,4-1.43l0.86,0.2L524.23,1243.35h-1.9" transform="translate(1.54 -2.11)"/><path class="cls-2" d="M956.63,1588l-3.18,2.59,0.71,0.56,2.52,2,2.48-2a4,4,0,0,0,.62-0.63l-3.15-2.47" transform="translate(1.54 -2.11)"/><path class="cls-2" d="M775.06,1441.43a4,4,0,0,0-3.15,1.53l3.14,2.47h0l4.79,1.1L780,1446h2.35l-4.78-3.75-0.18-.13-0.54-.43-0.86-.2a4,4,0,0,0-.9-0.1" transform="translate(1.54 -2.11)"/><path class="cls-2" d="M787.4,1450h-5.63a4,4,0,0,1-.53.24L956.63,1588l3.15,2.47a4,4,0,0,0-.68-5.62h0L787.4,1450" transform="translate(1.54 -2.11)"/><path class="cls-2" d="M775.06,1445.43l6.18,4.85a4,4,0,0,0,.53-0.24h5.63l-5.09-4H780l-0.11.49-4.79-1.1" transform="translate(1.54 -2.11)"/><path class="cls-2" d="M527.17,1273l31,171.88a4,4,0,0,1-3.22,4.65h0l73.21,406.12,325.31-265.06-3.22-2.53L630.87,1848.3l-72.72-403.38-31-171.88m-3.61-20h0l249,195.58L523.55,1253" transform="translate(1.54 -2.11)"/><path class="cls-2" d="M522.49,1247.07l1.07,5.93,249,195.58,0.18,0.13-0.17-.13a4,4,0,0,1-.68-5.61l-249.43-195.9" transform="translate(1.54 -2.11)"/><path class="cls-2" d="M772.76,1448.7L950.23,1588.1l3.22,2.53,3.18-2.59L781.24,1450.28a4,4,0,0,1-1.38.25,4,4,0,0,1-.9-0.1l-4.7-1.08a4,4,0,0,1-1.5-.64" transform="translate(1.54 -2.11)"/><path class="cls-2" d="M771.91,1443a4,4,0,0,0,.68,5.61l0.17,0.13h0a4,4,0,0,0,1.5.64l4.7,1.08a4,4,0,0,0,.9.1,4,4,0,0,0,1.38-.25l-6.18-4.85-2.47,3.15,2.47-3.15h0l-3.14-2.47" transform="translate(1.54 -2.11)"/><path class="cls-10" d="M343.89,223.83l62.19,438.28,198.86-73.74h0L940.22,464,735.81,381.7h0L343.89,223.83" transform="translate(1.54 -2.11)"/><path class="cls-2" d="M339,213.53a4,4,0,0,0-4,4h0a4.5,4.5,0,0,0,0,.56L398.41,665l3-1.12h0l0.82-.3L339,217.54h0l394.63,159a4,4,0,0,1,.3-0.6l1.77-2.88L340.46,213.82a4,4,0,0,0-1.49-.29" transform="translate(1.54 -2.11)"/><path class="cls-2" d="M735.66,373l-1.77,2.88a4,4,0,0,0-.3.6L737.3,378l1.49-3.71L735.66,373" transform="translate(1.54 -2.11)"/><path class="cls-8" d="M835.43,413.21l117.36,47.28h0L835.43,413.21" transform="translate(1.54 -2.11)"/><polyline class="cls-2" points="740.34 372.17 738.84 375.88 740.97 372.43 740.34 372.17"/><path class="cls-2" d="M739.43,374.53L737.3,378l208.49,84,3.86-1.43a4,4,0,0,1,3.13-.06h0L835.43,413.21l-96-38.68" transform="translate(1.54 -2.11)"/><path class="cls-2" d="M951.29,460.2a4,4,0,0,0-1.64.35l0.25-.09a4,4,0,0,1,5.31,2.94,4,4,0,0,0-2.4-2.9h0a4,4,0,0,0-1.49-.29" transform="translate(1.54 -2.11)"/><path class="cls-2" d="M339,217.53h0l63.28,446,3.84-1.42L343.89,223.83,735.81,381.7a4,4,0,0,1-2.21-5.2L339,217.53" transform="translate(1.54 -2.11)"/><path class="cls-2" d="M737.3,378l-1.49,3.71L940.22,464l5.57-2.07L737.3,378m-3.71-1.49a4,4,0,0,0,2.21,5.2h0L737.3,378l-3.71-1.49" transform="translate(1.54 -2.11)"/><polyline class="cls-11" points="944.07 469.62 610.64 593.25 554.26 693.5 456.08 868.08 521.24 1229.51 944.07 469.62"/><polyline class="cls-2" points="951.08 467.02 949.84 467.48 522.36 1235.72 522.63 1237.24 526.09 1237.24 952.92 470.17 951.08 467.02"/><polyline class="cls-2" points="952.78 466.38 951.08 467.02 952.92 470.17 954.61 467.12 952.78 466.38"/><polyline class="cls-2" points="522.63 1237.24 522.96 1239.04 524.45 1240.2 526.09 1237.24 522.63 1237.24"/><path class="cls-2" d="M953.31,467.66a4,4,0,0,1-.63.3l-1.44.53,1.83,0.74,0.56-1-0.33-.56" transform="translate(1.54 -2.11)"/><path class="cls-2" d="M955,465.69a4,4,0,0,1-1.69,2l0.33,0.56,1.15-2.06a4,4,0,0,0,.22-0.46h0" transform="translate(1.54 -2.11)"/><path class="cls-2" d="M955.21,463.4a4,4,0,0,1,.08.8h0a4,4,0,0,1-.29,1.49h0a4,4,0,0,0,.21-2.3" transform="translate(1.54 -2.11)"/><polyline class="cls-2" points="522.96 1239.04 523.23 1240.53 523.36 1241.24 523.87 1241.24 524.45 1240.2 522.96 1239.04"/><polyline class="cls-2" points="523.36 1241.24 523.48 1241.94 523.87 1241.24 523.36 1241.24"/><polyline class="cls-2" points="950.57 466.16 949.84 467.48 951.08 467.02 950.57 466.16"/><polyline class="cls-2" points="950.88 465.62 950.57 466.16 951.08 467.02 952.78 466.38 951.34 465.8 950.88 465.62"/><path class="cls-2" d="M951.29,464.21h0l-2,3.51,0.46,0.19,1.45,0.58,1.44-.53a4,4,0,0,0,.63-0.3l-2-3.45" transform="translate(1.54 -2.11)"/><path class="cls-2" d="M951.29,464.2h0l2,3.45a4,4,0,0,0,1.69-2l-3.71-1.5" transform="translate(1.54 -2.11)"/><path class="cls-2" d="M949.65,460.55L945.79,462l1.79,0.72a4,4,0,0,1,1.47-1.82,4,4,0,0,1,.6-0.33" transform="translate(1.54 -2.11)"/><path class="cls-2" d="M951.3,460.21a4,4,0,0,0-1.39.25h0l-0.25.09a4,4,0,0,0-.6.33,4,4,0,0,0-1.47,1.82l3.64,1.47-3.43-1.91,3.43,1.91,0.06,0,3.71,1.5a4,4,0,0,0,.29-1.49h0a4,4,0,0,0-4-4" transform="translate(1.54 -2.11)"/><path class="cls-2" d="M940.22,464L605,588.36a4,4,0,0,1,5.12,2.37L945.73,466.27,940.22,464" transform="translate(1.54 -2.11)"/><path class="cls-2" d="M945.79,462L940.22,464l5.51,2.22,1.81-.67a4,4,0,0,1-.25-1.39h0a4,4,0,0,1,.29-1.49l-1.79-.72" transform="translate(1.54 -2.11)"/><path class="cls-2" d="M947.58,462.7a4,4,0,0,0-.29,1.49h0a4,4,0,0,0,.25,1.39l3.75-1.39h0l-0.06,0,0.06,0-0.06,0-3.64-1.47" transform="translate(1.54 -2.11)"/><polyline class="cls-2" points="949.84 467.48 610.64 593.25 610.64 593.25 944.07 469.62 521.24 1229.51 456.08 868.08 554.26 693.5 456.08 868.08 522.36 1235.72 949.84 467.48"/><path class="cls-2" d="M945.73,466.27L610.08,590.73a4,4,0,0,1-.26,3.35l-0.72,1.28L948.3,469.58l0.73-1.32-0.51-.87-2.79-1.13" transform="translate(1.54 -2.11)"/><polyline class="cls-2" points="950.06 465.29 950.57 466.16 950.88 465.62 950.06 465.29"/><path class="cls-2" d="M947.54,465.6l-1.81.67,2.79,1.13-0.68-1.16a4,4,0,0,1-.3-0.63" transform="translate(1.54 -2.11)"/><path class="cls-2" d="M951.29,464.21l-3.75,1.39a4,4,0,0,0,.3.63l0.68,1.16,0.81,0.33,2-3.51" transform="translate(1.54 -2.11)"/><path class="cls-12" d="M597.5,599.66L404.21,671.34h0L10.57,817.3l322.81,252L446.86,867.52l0,0L597.5,599.66" transform="translate(1.54 -2.11)"/><path class="cls-12" d="M402.82,667.59l1.39,3.75h0l-1.39-3.75" transform="translate(1.54 -2.11)"/><polyline class="cls-12" points="599.04 597.55 599.04 597.55 448.42 865.38 448.42 865.38 599.04 597.55"/><path class="cls-2" d="M398.41,665L1.07,812.29A4,4,0,0,0,0,819.19l329.42,257.15,1.84-3.27,0.15-.26L2.46,816,399.07,669a4,4,0,0,1-.21-0.83L398.41,665" transform="translate(1.54 -2.11)"/><path class="cls-10" d="M605,588.36h0L406.08,662.11h0l198.86-73.74h0" transform="translate(1.54 -2.11)"/><path class="cls-2" d="M402.25,663.54l-0.82.3-3,1.12,0.45,3.19a4,4,0,0,0,.21.83l3.75-1.39-0.58-4.05" transform="translate(1.54 -2.11)"/><path class="cls-2" d="M604.94,588.37L406.08,662.11l-3.84,1.42,0.58,4.05,197.71-73.32,2.31-4.11a4,4,0,0,1,2.1-1.79" transform="translate(1.54 -2.11)"/><polyline class="cls-11" points="610.64 593.25 610.64 593.25 554.26 693.5 610.64 593.25"/><path class="cls-2" d="M606.33,588.12a4,4,0,0,0-1.37.24h0a4,4,0,0,0-2.1,1.79l-2.31,4.11,5.8-2.15,3.75-1.39a4,4,0,0,0-3.75-2.61" transform="translate(1.54 -2.11)"/><path class="cls-2" d="M609.1,595.36l-1.38.51-4.42,1.64L452.31,866a4,4,0,0,1,2,2.78l0.26,1.42,98.18-174.58L609.1,595.36h0" transform="translate(1.54 -2.11)"/><path class="cls-2" d="M610.08,590.73l-3.75,1.39-3,5.39,4.42-1.64,1.38-.51,0.72-1.28a4,4,0,0,0,.26-3.35" transform="translate(1.54 -2.11)"/><path class="cls-2" d="M399.07,669L2.46,816,331.4,1072.82l2-3.53L10.57,817.3,404.19,671.35a4,4,0,0,1-5.12-2.37M597.5,599.66L404.21,671.34,597.5,599.66h0" transform="translate(1.54 -2.11)"/><path class="cls-2" d="M600.53,594.27L402.82,667.59,399.07,669a4,4,0,0,0,5.12,2.37h0l-1.39-3.75,1.39,3.75L597.5,599.66l3-5.39" transform="translate(1.54 -2.11)"/><path class="cls-2" d="M603.3,597.51l-5.8,2.15h0L446.88,867.49a4,4,0,0,1,5.43-1.5l151-268.48" transform="translate(1.54 -2.11)"/><polyline class="cls-2" points="607.87 590.01 602.07 592.16 599.04 597.55 604.84 595.4 607.87 590.01"/><path class="cls-13" d="M448.39,881.13l-20.77,36.93L338.23,1077l0,0L133.34,1441.3,549.51,1442l-35.69-198h0L448.39,881.13" transform="translate(1.54 -2.11)"/><path class="cls-13" d="M427.62,918.06L338.23,1077l0,0,0,0,89.39-158.94" transform="translate(1.54 -2.11)"/><path class="cls-2" d="M329.42,1076.35L123.3,1442.83a4.05,4.05,0,0,0-.51,2v0.5a4,4,0,0,0,4,4L551,1450l-0.67-3.7-0.05-.3-423.44-.75v-0.5l206-366.26-1.78-1a4.88,4.88,0,0,1-.5-0.33l-1.08-.85" transform="translate(1.54 -2.11)"/><polyline class="cls-9" points="525.09 1250.89 528.71 1270.93 525.09 1250.89 525.09 1250.89"/><path class="cls-2" d="M554.22,1445.63L552,1446h-1.73l0.05,0.3L551,1450h1a4.08,4.08,0,0,0,.71-0.06l2.26-.41-0.71-3.94" transform="translate(1.54 -2.11)"/><path class="cls-2" d="M521.94,1244l-0.69,1.25a4,4,0,0,1-.35.53l1.59,1.25-0.54-3" transform="translate(1.54 -2.11)"/><path class="cls-2" d="M518.82,1249.27l35.4,196.35,0.71,3.94h0a4,4,0,0,0,3.22-4.65l-31-171.88-3.61-20h0l-4.73-3.72" transform="translate(1.54 -2.11)"/><path class="cls-2" d="M520.9,1245.82a4,4,0,0,1-2.44,1.47l0.36,2,4.73,3.72-1.07-5.93-1.59-1.25" transform="translate(1.54 -2.11)"/><polyline class="cls-2" points="522.36 1235.72 521.52 1237.24 522.63 1237.24 522.36 1235.72"/><path class="cls-2" d="M520,1239.35l-0.28.5a4,4,0,0,1,.53.35l1.2,0.94-0.32-1.79H520" transform="translate(1.54 -2.11)"/><path class="cls-2" d="M519.7,1239.85l-1.95,3.5,3.94-.71-3.94.71h4.06l-0.13-.71-0.27-1.5-1.2-.94a4,4,0,0,0-.53-0.35" transform="translate(1.54 -2.11)"/><path class="cls-2" d="M517.75,1243.35h0l3.15,2.47a4,4,0,0,0,.35-0.53l0.69-1.25-0.13-.7h-4.06" transform="translate(1.54 -2.11)"/><path class="cls-2" d="M517.75,1243.35l0.71,3.94a4,4,0,0,0,2.44-1.47l-3.15-2.47" transform="translate(1.54 -2.11)"/><path class="cls-2" d="M454.54,870.18l-0.71,1.25-2.37,4.22L517,1239.41a4,4,0,0,1,.71-0.06H520l0.84-1.52L454.54,870.18" transform="translate(1.54 -2.11)"/><path class="cls-2" d="M517.9,1239.35a4,4,0,0,1,1.8.5l0.28-.5H517.9" transform="translate(1.54 -2.11)"/><path class="cls-2" d="M517.75,1239.35a4,4,0,0,0-.71.06h0a4,4,0,0,1,.71-0.06h0" transform="translate(1.54 -2.11)"/><path class="cls-2" d="M517.75,1239.35a4,4,0,0,0-.71.06l0.71,3.94,1.95-3.5a4,4,0,0,0-1.8-.5h-0.14" transform="translate(1.54 -2.11)"/><path class="cls-12" d="M446.88,867.49l0,0L333.38,1069.29,446.86,867.52l0,0" transform="translate(1.54 -2.11)"/><polyline class="cls-12" points="448.42 865.38 448.42 865.38 448.4 865.41 448.42 865.38"/><path class="cls-2" d="M452.31,866l-2,3.49,1.11,6.18,2.37-4.22,0.71-1.25-0.26-1.42a4,4,0,0,0-2-2.78" transform="translate(1.54 -2.11)"/><path class="cls-2" d="M331.4,1072.82l-0.15.26-1.84,3.27,1.08,0.85a4.88,4.88,0,0,0,.5.33l1.78,1,2-3.49-1.78-1-1.56-1.22" transform="translate(1.54 -2.11)"/><path class="cls-2" d="M446.86,867.52h0L333.38,1069.29l-2,3.53L333,1074l1.78,1L447.27,875l-0.86-4.76a4,4,0,0,1,.45-2.67h0" transform="translate(1.54 -2.11)"/><path class="cls-2" d="M450.35,865.48a4,4,0,0,0-3.47,2l0,0a4,4,0,0,0-.45,2.67l0.86,4.76,3.08-5.47,2-3.49a4,4,0,0,0-2-.51" transform="translate(1.54 -2.11)"/><polyline class="cls-2" points="449.93 879.02 429.16 915.95 449.93 879.02 515.35 1241.95 449.93 879.02"/><path class="cls-2" d="M451.47,875.66l-3.08,5.47,65.43,362.93a4,4,0,0,1,3.23-4.65L451.47,875.66" transform="translate(1.54 -2.11)"/><path class="cls-2" d="M517,1239.41a4,4,0,0,0-3.23,4.65h0a4,4,0,0,1,3.23-4.65h0" transform="translate(1.54 -2.11)"/><path class="cls-2" d="M517,1239.41a4,4,0,0,0-3.23,4.65l3.94-.71-0.71-3.94" transform="translate(1.54 -2.11)"/><path class="cls-2" d="M338.21,1077a4,4,0,0,1-5.43,1.5h0l-206,366.26v0.5L550.23,1446l-0.72-4-416.17-.73L338.21,1077" transform="translate(1.54 -2.11)"/><path class="cls-2" d="M513.81,1244.06l35.69,198,0.72,4H552l2.26-.41-35.4-196.35-3.49-2.74a4,4,0,0,1-1.52-2.48" transform="translate(1.54 -2.11)"/><path class="cls-2" d="M515.33,1246.53l3.49,2.74-0.36-2a4,4,0,0,1-3.13-.75" transform="translate(1.54 -2.11)"/><path class="cls-2" d="M513.82,1244.06h0a4,4,0,0,0,1.52,2.48l-0.05,0a4,4,0,0,1-1.47-2.44" transform="translate(1.54 -2.11)"/><path class="cls-2" d="M517.75,1243.35l-3.94.71a4,4,0,0,0,1.47,2.44l0.05,0a4,4,0,0,0,3.13.75l-0.71-3.94" transform="translate(1.54 -2.11)"/><path class="cls-2" d="M447.27,875L334.74,1075l-2,3.49h0a4,4,0,0,0,5.43-1.5l0,0,89.39-158.94,20.77-36.93L447.27,875" transform="translate(1.54 -2.11)"/><polyline class="cls-2" points="451.89 867.37 451.89 867.37 448.81 872.84 449.93 879.02 453 873.55 451.89 867.37"/></svg>